# xmcd CD database file generated by MAGIX-FreeDB-MP3_Maker_12 v2.0beta1
# 
# Track frame offsets:
#      150
#      15900
#      32250
#      50250
#      65850
#      79200
#      95100
#      114150
#      130050
#      145725
#      162750
#      179925
#      193350
#      210000
# 
# Disc length: 3020 seconds
# 
# Revision: 7 
# Processed by: cddbd v1.5.2PL0 Copyright (c) Steve Scherf et al.
# Submitted via: MAGIX-FreeDB-MP3_Maker_12 v2.0beta1
# 
DISCID=ba0bca0e
DTITLE=Edward Simoni - Pan-Träume
DYEAR=1990
DGENRE=Instrumental
TTITLE0=Edward Simoni - Pan-Träume
TTITLE1=Edward Simoni - Guantanamera
TTITLE2=Edward Simoni - Nadine
TTITLE3=Edward Simoni - Sehnsuchtsmelodie
TTITLE4=Edward Simoni - Amazing Grace
TTITLE5=Edward Simoni - Traumland
TTITLE6=Edward Simoni - Einsamer Hirte
TTITLE7=Edward Simoni - Dolannes Melodie
TTITLE8=Edward Simoni - Wenn der Tag erwacht
TTITLE9=Edward Simoni - Plaisir d`amour
TTITLE10=Edward Simoni - Ein Abend am Meer
TTITLE11=Edward Simoni - Romanze aus"Die Perlenfischer"
TTITLE12=Edward Simoni - Erinnerungen
TTITLE13=Edward Simoni - El Condor Pasa
EXTD=Getauscht mit Jens
EXTT0=
EXTT1=
EXTT2=
EXTT3=
EXTT4=
EXTT5=
EXTT6=
EXTT7=
EXTT8=
EXTT9=
EXTT10=
EXTT11=
EXTT12=
EXTT13=
PLAYORDER=
